
<svg xmlns="http://www.w3.org/2000/svg" viewBox="0 0 600 380" width="600" height="380" role="img" aria-label="Menjenguk teman yang sakit">
  <defs>
    <linearGradient id="bg" x1="0" y1="0" x2="0" y2="1">
      <stop offset="0" stop-color="#F0FDFA"></stop>
      <stop offset="1" stop-color="#FFFBEB"></stop>
    </linearGradient>
    <linearGradient id="bed" x1="0" y1="0" x2="0" y2="1">
      <stop offset="0" stop-color="#FFFFFF"></stop>
      <stop offset="1" stop-color="#F1F5F9"></stop>
    </linearGradient>
    <linearGradient id="blanket" x1="0" y1="0" x2="0" y2="1">
      <stop offset="0" stop-color="#FCD34D"></stop>
      <stop offset="1" stop-color="#F59E0B"></stop>
    </linearGradient>
    <linearGradient id="shirt" x1="0" y1="0" x2="0" y2="1">
      <stop offset="0" stop-color="#14B8A6"></stop>
      <stop offset="1" stop-color="#0F766E"></stop>
    </linearGradient>
    <radialGradient id="sun" cx="0.5" cy="0.5" r="0.5">
      <stop offset="0" stop-color="#FDE68A"></stop>
      <stop offset="1" stop-color="#F59E0B"></stop>
    </radialGradient>
    
  </defs>

  
  <rect width="600" height="380" rx="24" fill="url(#bg)"></rect>

  
  <g class="sun-mark">
    <circle cx="540" cy="80" r="72" fill="#FFFBEB" opacity="0.85"></circle>
    <circle cx="540" cy="80" r="36" fill="url(#sun)"></circle>
  </g>
  <g stroke="#F59E0B" stroke-width="3" stroke-linecap="round" opacity="0.55">
    <line x1="470" y1="80" x2="455" y2="80"></line>
    <line x1="540" y1="10" x2="540" y2="-5"></line>
    <line x1="488" y1="32" x2="478" y2="22"></line>
    <line x1="592" y1="32" x2="602" y2="22"></line>
  </g>

  
  <rect x="385" y="55" width="170" height="200" rx="14" fill="#F0FDFA" stroke="#CBD5E1" stroke-width="2"></rect>
  <line x1="385" y1="155" x2="555" y2="155" stroke="#CBD5E1" stroke-width="2"></line>
  <line x1="470" y1="55" x2="470" y2="255" stroke="#CBD5E1" stroke-width="2"></line>
  
  <ellipse cx="430" cy="100" rx="18" ry="8" fill="#FFFFFF" opacity="0.95"></ellipse>
  <ellipse cx="446" cy="96" rx="13" ry="7" fill="#FFFFFF" opacity="0.95"></ellipse>

  
  <line x1="20" y1="335" x2="580" y2="335" stroke="#E2E8F0" stroke-width="2"></line>

  
  <g transform="translate(40 285)">
    <path d="M0 30 q5 25 30 25 q25 0 30 -25 z" fill="#0F766E"></path>
    <rect x="-2" y="22" width="64" height="10" rx="3" fill="#115E59"></rect>
    <g class="plant-leaf">
      <ellipse cx="15" cy="10" rx="9" ry="20" fill="#14B8A6"></ellipse>
      <ellipse cx="30" cy="-1" rx="10" ry="22" fill="#0F766E"></ellipse>
      <ellipse cx="46" cy="12" rx="9" ry="18" fill="#14B8A6"></ellipse>
    </g>
  </g>

  
  <ellipse cx="220" cy="332" rx="160" ry="5" fill="#000" opacity="0.06"></ellipse>

  
  <rect x="80" y="200" width="14" height="110" rx="4" fill="#0F766E"></rect>
  <rect x="94" y="240" width="280" height="72" rx="14" fill="url(#bed)" stroke="#E2E8F0" stroke-width="1.5"></rect>
  <rect x="105" y="220" width="100" height="36" rx="10" fill="#FFFFFF" stroke="#CBD5E1" stroke-width="1.5"></rect>
  <path d="M210 245 h160 q4 0 4 4 v55 q0 4 -4 4 h-160 z" fill="url(#blanket)"></path>
  <line x1="220" y1="258" x2="370" y2="258" stroke="#D97706" stroke-width="2" opacity="0.45"></line>
  <line x1="220" y1="278" x2="370" y2="278" stroke="#D97706" stroke-width="2" opacity="0.45"></line>
  <line x1="220" y1="298" x2="370" y2="298" stroke="#D97706" stroke-width="2" opacity="0.45"></line>
  <rect x="370" y="220" width="14" height="100" rx="4" fill="#14B8A6"></rect>

  
  <g>
    <circle cx="155" cy="218" r="22" fill="#FDE68A"></circle>
    <circle cx="135" cy="222" r="3" fill="#FCD34D"></circle>
    <path d="M133 215 q22 -25 44 0 q-10 -6 -22 -6 q-12 0 -22 6 z" fill="#0F766E"></path>
    <circle cx="155" cy="206" r="2.5" fill="#F59E0B"></circle>
    <path d="M145 220 q4 -3 8 0" stroke="#1E293B" stroke-width="2" stroke-linecap="round" fill="none"></path>
    <path d="M159 220 q4 -3 8 0" stroke="#1E293B" stroke-width="2" stroke-linecap="round" fill="none"></path>
    <path d="M150 230 q5 3 10 0" stroke="#1E293B" stroke-width="2" stroke-linecap="round" fill="none"></path>
    <circle cx="140" cy="225" r="3" fill="#F87171" opacity="0.4"></circle>
    <circle cx="170" cy="225" r="3" fill="#F87171" opacity="0.4"></circle>
  </g>

  
  <g transform="translate(395 268)">
    <rect x="0" y="0" width="42" height="60" rx="4" fill="#FEF3C7" stroke="#D97706" stroke-width="1.2"></rect>
    <rect x="0" y="14" width="42" height="2" fill="#D97706" opacity="0.4"></rect>
    <rect x="6" y="-16" width="12" height="20" rx="2" fill="#EF4444"></rect>
    <rect x="6" y="-20" width="12" height="5" rx="1" fill="#B91C1C"></rect>
    <path d="M24 -14 h14 l-2 18 h-10 z" fill="#CCFBF1" stroke="#14B8A6" stroke-width="1.2"></path>
  </g>

  
  <g class="visitor">
    <ellipse cx="490" cy="333" rx="36" ry="4" fill="#000" opacity="0.07"></ellipse>
    <path d="M460 220 h60 q6 0 6 6 v92 q0 6 -6 6 h-60 q-6 0 -6 -6 v-92 q0 -6 6 -6 z" fill="url(#shirt)"></path>
    <path d="M484 220 l6 10 l6 -10" stroke="#0B5A55" stroke-width="2" fill="none" stroke-linecap="round"></path>
    <rect x="450" y="226" width="14" height="48" rx="7" fill="#14B8A6"></rect>
    <circle cx="457" cy="280" r="8" fill="#FDE68A"></circle>
    <rect x="516" y="226" width="14" height="60" rx="7" fill="#14B8A6"></rect>
    <circle cx="523" cy="292" r="8" fill="#FDE68A"></circle>
    <circle cx="490" cy="195" r="26" fill="#FDE68A"></circle>
    <path d="M463 195 q27 -34 54 0 q-8 -8 -16 -10 q-11 -2 -22 -2 q-8 0 -16 12z" fill="#1E293B"></path>
    <circle cx="466" cy="200" r="3" fill="#FCD34D"></circle>
    <circle cx="514" cy="200" r="3" fill="#FCD34D"></circle>
    <circle cx="481" cy="195" r="2.5" fill="#1E293B"></circle>
    <circle cx="498" cy="195" r="2.5" fill="#1E293B"></circle>
    <circle cx="481.5" cy="194" r="0.8" fill="#fff"></circle>
    <circle cx="498.5" cy="194" r="0.8" fill="#fff"></circle>
    <path d="M477 188 q4 -2 8 0" stroke="#1E293B" stroke-width="2" stroke-linecap="round" fill="none"></path>
    <path d="M494 188 q4 -2 8 0" stroke="#1E293B" stroke-width="2" stroke-linecap="round" fill="none"></path>
    <path d="M483 207 q7 5 14 0" stroke="#1E293B" stroke-width="2" stroke-linecap="round" fill="none"></path>
    <circle cx="473" cy="205" r="3.5" fill="#F87171" opacity="0.4"></circle>
    <circle cx="507" cy="205" r="3.5" fill="#F87171" opacity="0.4"></circle>

    
    <g transform="translate(430 250)">
      <path d="M-2 24 l8 -22 l18 0 l8 22 z" fill="#FFFFFF" stroke="#CBD5E1" stroke-width="1.2"></path>
      <line x1="8" y1="22" x2="12" y2="38" stroke="#0F766E" stroke-width="1.5"></line>
      <line x1="14" y1="22" x2="14" y2="38" stroke="#0F766E" stroke-width="1.5"></line>
      <line x1="20" y1="22" x2="18" y2="38" stroke="#0F766E" stroke-width="1.5"></line>
      <ellipse cx="2" cy="6" rx="6" ry="3" fill="#14B8A6" transform="rotate(-25 2 6)"></ellipse>
      <ellipse cx="32" cy="4" rx="6" ry="3" fill="#0F766E" transform="rotate(25 32 4)"></ellipse>
      <circle cx="6" cy="0" r="6" fill="#F59E0B"></circle>
      <circle cx="6" cy="0" r="2" fill="#FEF3C7"></circle>
      <circle cx="16" cy="-6" r="6" fill="#EF4444"></circle>
      <circle cx="16" cy="-6" r="2" fill="#FEF3C7"></circle>
      <circle cx="26" cy="-2" r="6" fill="#14B8A6"></circle>
      <circle cx="26" cy="-2" r="2" fill="#FEF3C7"></circle>
    </g>
  </g>

  
  <g class="bubble">
    <rect x="220" y="60" width="280" height="78" rx="20" fill="#FFFFFF" stroke="#E2E8F0" stroke-width="1.5"></rect>
    <path d="M270 138 l-8 18 l24 -18 z" fill="#FFFFFF" stroke="#E2E8F0" stroke-width="1.5"></path>
    <text x="485" y="100" text-anchor="end" font-family="&#39;Noto Naskh Arabic&#39;,&#39;Amiri&#39;,serif" font-size="24" font-weight="700" fill="#0F766E">شِفَاءٌ عَاجِلٌ، إِنْ شَاءَ اللَّه</text>
    <text x="485" y="124" text-anchor="end" font-family="Poppins,sans-serif" font-size="11" fill="#64748B">Semoga lekas sembuh, insyaAllah</text>
  </g>

  
  <path class="heart-1" d="M420 175 c -3 -7 -12 -7 -12 1 c 0 6 12 14 12 14 c 0 0 12 -8 12 -14 c 0 -8 -9 -8 -12 -1 z" fill="#EF4444"></path>
  <path class="heart-2" d="M460 145 c -2 -5 -8 -5 -8 1 c 0 4 8 10 8 10 c 0 0 8 -6 8 -10 c 0 -6 -6 -6 -8 -1 z" fill="#F59E0B"></path>
  <path class="heart-3" d="M395 125 c -2 -5 -8 -5 -8 1 c 0 4 8 10 8 10 c 0 0 8 -6 8 -10 c 0 -6 -6 -6 -8 -1 z" fill="#14B8A6"></path>

  
  <g fill="#F59E0B">
    <path class="sparkle" d="M340 58 v-12 M340 58 v12 M328 58 h12 M340 58 h12" stroke="#F59E0B" stroke-width="2.5" stroke-linecap="round" fill="none"></path>
    <path class="sparkle sparkle-2" d="M170 108 v-9 M170 108 v9 M161 108 h9 M170 108 h9" stroke="#F59E0B" stroke-width="2.2" stroke-linecap="round" fill="none"></path>
    <path class="sparkle sparkle-3" d="M560 285 v-8 M560 285 v8 M552 285 h8 M560 285 h8" stroke="#0F766E" stroke-width="2.2" stroke-linecap="round" fill="none"></path>
  </g>
</svg>