
<svg xmlns="http://www.w3.org/2000/svg" viewBox="0 0 200 200" width="200" height="200">
  <rect width="200" height="200" fill="#F0FDFA"></rect>
  
  <rect x="62" y="58" width="60" height="14" rx="4" fill="#0F766E"></rect>
  <rect x="56" y="70" width="72" height="100" rx="10" fill="#FFFFFF" stroke="#0F766E" stroke-width="3"></rect>
  
  <rect x="64" y="92" width="56" height="38" rx="4" fill="#0F766E"></rect>
  <rect x="72" y="100" width="16" height="22" fill="#fff"></rect>
  <rect x="76" y="106" width="8" height="10" fill="#0F766E"></rect>
  <rect x="74" y="108" width="12" height="6" fill="#0F766E"></rect>
  <line x1="96" y1="105" x2="114" y2="105" stroke="#fff" stroke-width="2"></line>
  <line x1="96" y1="113" x2="114" y2="113" stroke="#fff" stroke-width="2"></line>
  <line x1="96" y1="121" x2="108" y2="121" stroke="#fff" stroke-width="2"></line>
  
  <g transform="translate(140 115) rotate(30)">
    <rect x="0" y="0" width="42" height="18" rx="9" fill="#EF4444"></rect>
    <rect x="0" y="0" width="21" height="18" rx="9" fill="#FCD34D"></rect>
    <line x1="21" y1="2" x2="21" y2="16" stroke="#fff" stroke-width="1.5"></line>
  </g>
  <g transform="translate(18 138) rotate(-20)">
    <rect x="0" y="0" width="36" height="14" rx="7" fill="#14B8A6"></rect>
    <rect x="0" y="0" width="18" height="14" rx="7" fill="#fff"></rect>
  </g>
  
  <path d="M150 60 v-10 M150 60 v10 M140 60 h10 M150 60 h10" stroke="#F59E0B" stroke-width="2.5" stroke-linecap="round"></path>
</svg>