
<svg xmlns="http://www.w3.org/2000/svg" viewBox="0 0 200 200" width="200" height="200">
  <rect width="200" height="200" fill="#F0FDFA"></rect>
  
  <rect x="36" y="62" width="128" height="116" rx="6" fill="#FFFFFF" stroke="#CBD5E1" stroke-width="2"></rect>
  
  <rect x="44" y="50" width="112" height="18" rx="4" fill="#0F766E"></rect>
  
  <circle cx="100" cy="92" r="20" fill="#EF4444"></circle>
  <rect x="97" y="80" width="6" height="24" fill="#fff" rx="1"></rect>
  <rect x="88" y="89" width="24" height="6" fill="#fff" rx="1"></rect>
  
  <g fill="#CCFBF1" stroke="#14B8A6" stroke-width="1.5">
    <rect x="50" y="124" width="20" height="16" rx="2"></rect>
    <rect x="76" y="124" width="20" height="16" rx="2"></rect>
    <rect x="104" y="124" width="20" height="16" rx="2"></rect>
    <rect x="130" y="124" width="20" height="16" rx="2"></rect>
    <rect x="50" y="146" width="20" height="16" rx="2"></rect>
    <rect x="130" y="146" width="20" height="16" rx="2"></rect>
  </g>
  
  <rect x="84" y="148" width="32" height="30" rx="3" fill="#0F766E"></rect>
  <circle cx="110" cy="165" r="2" fill="#FCD34D"></circle>
  
  <ellipse cx="100" cy="184" rx="80" ry="4" fill="#000" opacity="0.06"></ellipse>
</svg>