
<svg xmlns="http://www.w3.org/2000/svg" viewBox="0 0 200 200" width="200" height="200">
  <rect width="200" height="200" fill="#F0FDFA"></rect>
  
  <path d="M40 200 q0 -60 60 -60 q60 0 60 60 z" fill="#FFFFFF" stroke="#CBD5E1" stroke-width="2"></path>
  <path d="M86 142 l14 18 l14 -18" fill="#0F766E"></path>
  
  <circle cx="100" cy="100" r="38" fill="#FDE68A"></circle>
  
  <path d="M62 100 q38 -42 76 0 q-10 -14 -38 -14 q-28 0 -38 14z" fill="#1E293B"></path>
  
  <circle cx="86" cy="100" r="3" fill="#1E293B"></circle>
  <circle cx="114" cy="100" r="3" fill="#1E293B"></circle>
  
  <path d="M88 115 q12 7 24 0" stroke="#1E293B" stroke-width="2.5" stroke-linecap="round" fill="none"></path>
  
  <path d="M82 150 q-12 14 -22 4 q-8 -8 -2 -18" stroke="#1E293B" stroke-width="3" fill="none" stroke-linecap="round"></path>
  <path d="M118 150 q12 14 22 4 q8 -8 2 -18" stroke="#1E293B" stroke-width="3" fill="none" stroke-linecap="round"></path>
  <circle cx="58" cy="135" r="6" fill="#0F766E"></circle>
  <circle cx="142" cy="135" r="6" fill="#0F766E"></circle>
  <path d="M100 158 q0 22 -22 26" stroke="#1E293B" stroke-width="3" fill="none" stroke-linecap="round"></path>
  <circle cx="78" cy="184" r="8" fill="#14B8A6"></circle>
  
  <rect x="125" y="155" width="22" height="22" rx="4" fill="#EF4444"></rect>
  <rect x="133" y="158" width="6" height="16" fill="#fff"></rect>
  <rect x="127" y="164" width="18" height="4" fill="#fff"></rect>
</svg>