
<svg xmlns="http://www.w3.org/2000/svg" viewBox="0 0 200 200" width="200" height="200">
  <rect width="200" height="200" fill="#F0FDFA"></rect>
  
  <path d="M52 200 q0 -40 48 -40 q48 0 48 40 z" fill="#0F766E"></path>
  
  <circle cx="100" cy="115" r="40" fill="#FDE68A"></circle>
  
  <path d="M60 110 q40 -42 80 0 q-10 -14 -40 -14 q-30 0 -40 14z" fill="#1E293B"></path>
  
  <path d="M82 115 l10 6 M92 115 l-10 6" stroke="#1E293B" stroke-width="2.5" stroke-linecap="round"></path>
  <path d="M108 115 l10 6 M118 115 l-10 6" stroke="#1E293B" stroke-width="2.5" stroke-linecap="round"></path>
  
  <path d="M88 138 q12 -8 24 0" stroke="#1E293B" stroke-width="2.5" stroke-linecap="round" fill="none"></path>
  
  <g fill="#EF4444">
    <path d="M70 60 l8 12 l-6 0 l8 14 l-14 -10 l5 -2 l-9 -14 z"></path>
    <path d="M126 50 l8 12 l-6 0 l8 14 l-14 -10 l5 -2 l-9 -14 z"></path>
    <path d="M50 100 l10 6 l-3 5 l12 4 l-16 4 l3 -5 l-12 -4 z"></path>
  </g>
  
  <ellipse cx="146" cy="95" rx="5" ry="8" fill="#14B8A6"></ellipse>
  <ellipse cx="160" cy="120" rx="4" ry="7" fill="#14B8A6" opacity="0.7"></ellipse>
</svg>